<svg xmlns="http://www.w3.org/2000/svg" width="321" height="176" viewBox="0 0 321 176" role="img" aria-label="gauge: every pull request state">
<rect width="321" height="176" rx="8" fill="#0d1117"/>
<text xml:space="preserve" font-family="'JetBrainsMono Nerd Font Mono', 'JetBrains Mono', ui-monospace, SFMono-Regular, Menlo, Consolas, monospace" font-size="15px" fill="#c9d1d9">
<tspan x="12.0" y="33" fill="#58a6ff">~/dev/acme</tspan>
<tspan x="102.0" y="33"> </tspan>
<tspan x="111.0" y="33" fill="#6c6c6c">│</tspan>
<tspan x="120.0" y="33"> </tspan>
<tspan x="129.0" y="33" fill="#bc8cff">feature/login</tspan>
<tspan x="246.0" y="33"> </tspan>
<tspan x="255.0" y="33" fill="#6c6c6c">│</tspan>
<tspan x="264.0" y="33"> </tspan>
<tspan x="273.0" y="33" fill="#3fb950">⊙</tspan>
<tspan x="12.0" y="54" fill="#58a6ff">~/dev/acme</tspan>
<tspan x="102.0" y="54"> </tspan>
<tspan x="111.0" y="54" fill="#6c6c6c">│</tspan>
<tspan x="120.0" y="54"> </tspan>
<tspan x="129.0" y="54" fill="#bc8cff">feature/login</tspan>
<tspan x="246.0" y="54"> </tspan>
<tspan x="255.0" y="54" fill="#6c6c6c">│</tspan>
<tspan x="264.0" y="54"> </tspan>
<tspan x="273.0" y="54" fill="#6c6c6c">◌</tspan>
<tspan x="12.0" y="76" fill="#58a6ff">~/dev/acme</tspan>
<tspan x="102.0" y="76"> </tspan>
<tspan x="111.0" y="76" fill="#6c6c6c">│</tspan>
<tspan x="120.0" y="76"> </tspan>
<tspan x="129.0" y="76" fill="#bc8cff">feature/login</tspan>
<tspan x="246.0" y="76"> </tspan>
<tspan x="255.0" y="76" fill="#6c6c6c">│</tspan>
<tspan x="264.0" y="76"> </tspan>
<tspan x="273.0" y="76" fill="#3fb950">⊙</tspan>
<tspan x="282.0" y="76"> </tspan>
<tspan x="291.0" y="76" fill="#6c6c6c">·</tspan>
<tspan x="12.0" y="98" fill="#58a6ff">~/dev/acme</tspan>
<tspan x="102.0" y="98"> </tspan>
<tspan x="111.0" y="98" fill="#6c6c6c">│</tspan>
<tspan x="120.0" y="98"> </tspan>
<tspan x="129.0" y="98" fill="#bc8cff">feature/login</tspan>
<tspan x="246.0" y="98"> </tspan>
<tspan x="255.0" y="98" fill="#6c6c6c">│</tspan>
<tspan x="264.0" y="98"> </tspan>
<tspan x="273.0" y="98" fill="#3fb950">⊙</tspan>
<tspan x="282.0" y="98"> </tspan>
<tspan x="291.0" y="98" fill="#3fb950">✓</tspan>
<tspan x="12.0" y="120" fill="#58a6ff">~/dev/acme</tspan>
<tspan x="102.0" y="120"> </tspan>
<tspan x="111.0" y="120" fill="#6c6c6c">│</tspan>
<tspan x="120.0" y="120"> </tspan>
<tspan x="129.0" y="120" fill="#bc8cff">feature/login</tspan>
<tspan x="246.0" y="120"> </tspan>
<tspan x="255.0" y="120" fill="#6c6c6c">│</tspan>
<tspan x="264.0" y="120"> </tspan>
<tspan x="273.0" y="120" fill="#3fb950">⊙</tspan>
<tspan x="282.0" y="120"> </tspan>
<tspan x="291.0" y="120" fill="#ff7b72">✗</tspan>
<tspan x="12.0" y="141" fill="#58a6ff">~/dev/acme</tspan>
<tspan x="102.0" y="141"> </tspan>
<tspan x="111.0" y="141" fill="#6c6c6c">│</tspan>
<tspan x="120.0" y="141"> </tspan>
<tspan x="129.0" y="141" fill="#bc8cff">feature/login</tspan>
<tspan x="246.0" y="141"> </tspan>
<tspan x="255.0" y="141" fill="#6c6c6c">│</tspan>
<tspan x="264.0" y="141"> </tspan>
<tspan x="273.0" y="141" fill="#bc8cff">⊕</tspan>
<tspan x="12.0" y="163" fill="#58a6ff">~/dev/acme</tspan>
<tspan x="102.0" y="163"> </tspan>
<tspan x="111.0" y="163" fill="#6c6c6c">│</tspan>
<tspan x="120.0" y="163"> </tspan>
<tspan x="129.0" y="163" fill="#bc8cff">feature/login</tspan>
<tspan x="246.0" y="163"> </tspan>
<tspan x="255.0" y="163" fill="#6c6c6c">│</tspan>
<tspan x="264.0" y="163"> </tspan>
<tspan x="273.0" y="163" fill="#ff7b72">⊘</tspan>
</text>
</svg>
